<svg width="426" height="207" xmlns="http://www.w3.org/2000/svg" xmlns:xlink="http://www.w3.org/1999/xlink" overflow="hidden"><g transform="translate(-267 -190)"><path d="M580.711 288.5 392.289 288.5C390.197 288.5 388.5 290.2 388.5 292.296L388.5 392.704C388.5 394.801 390.197 396.5 392.289 396.5L580.711 396.5C582.804 396.5 584.5 394.801 584.5 392.704L584.5 292.296C584.5 290.2 582.804 288.5 580.711 288.5" stroke="#252529" stroke-width="1.00955" stroke-linejoin="round" stroke-miterlimit="10" fill="none" fill-rule="evenodd"/><path d="M536.735 191.5 435.265 191.5C433.186 191.5 431.5 193.196 431.5 195.289L431.5 265.711C431.5 267.804 433.186 269.5 435.265 269.5L536.735 269.5C538.814 269.5 540.5 267.804 540.5 265.711L540.5 195.289C540.5 193.196 538.814 191.5 536.735 191.5" stroke="#252529" stroke-width="1.00955" stroke-linejoin="round" stroke-miterlimit="10" fill="#F3F4F5" fill-rule="evenodd"/><path d="M430.176 230.5 333.824 230.5" stroke="#252529" stroke-width="1.00955" stroke-linejoin="round" stroke-miterlimit="10" fill="none" fill-rule="evenodd"/><path d="M333.5 230.833 333.5 319.167" stroke="#252529" stroke-width="1.00955" stroke-linejoin="round" stroke-miterlimit="10" fill="none" fill-rule="evenodd"/><path d="M333.837 319 378.163 319" stroke="#252529" stroke-width="1.00955" stroke-linejoin="round" stroke-miterlimit="10" fill="none" fill-rule="evenodd"/><path d="M386.5 319.001 374.5 314.5 378.534 319 374.5 323.5 386.5 319.001" stroke="#252529" stroke-width="1.00955" stroke-linejoin="round" stroke-miterlimit="10" fill="#252529" fill-rule="evenodd"/><path d="M584.844 319 639.156 319" stroke="#252529" stroke-width="1.00955" stroke-linejoin="round" stroke-miterlimit="10" fill="none" fill-rule="evenodd"/><path d="M639 319.167 639 230.833" stroke="#252529" stroke-width="1.00955" stroke-linejoin="round" stroke-miterlimit="10" fill="none" fill-rule="evenodd"/><path d="M639.167 230.5 551.833 230.5" stroke="#252529" stroke-width="1.00955" stroke-linejoin="round" stroke-miterlimit="10" fill="none" fill-rule="evenodd"/><path d="M543.5 230.002 555.5 234.5 551.466 230.001 555.499 225.5 543.5 230.002" stroke="#252529" stroke-width="1.00955" stroke-linejoin="round" stroke-miterlimit="10" fill="#252529" fill-rule="evenodd"/><path d="M452.167 202.836 445.833 202.836 445.833 258.164 452.167 258.164" stroke="#C81919" stroke-width="1.01333" stroke-linejoin="round" stroke-miterlimit="10" fill="none" fill-rule="evenodd"/><path d="M519.833 202.836 526.167 202.836 526.167 258.164 519.833 258.164" stroke="#C81919" stroke-width="1.01333" stroke-linejoin="round" stroke-miterlimit="10" fill="none" fill-rule="evenodd"/><text fill="#252529" font-family="Cambria Math,Cambria Math_MSFontService,sans-serif" font-weight="400" font-size="38" transform="translate(405.205 355)">𝐻</text><path d="M543.991 326.148C547.603 327.101 550.377 329.157 552.313 332.318 554.249 335.478 555.217 339.291 555.217 343.757 555.217 348.234 554.252 352.047 552.322 355.196 550.392 358.344 547.615 360.394 543.991 361.346L543.546 359.918C546.403 358.965 548.528 357.085 549.919 354.277 551.311 351.469 552.007 347.901 552.007 343.571 552.007 339.39 551.314 335.917 549.928 333.153 548.543 330.388 546.397 328.529 543.49 327.577ZM448.377 326.148 448.878 327.577C445.983 328.529 443.84 330.388 442.449 333.153 441.057 335.917 440.361 339.39 440.361 343.571 440.361 347.901 441.057 351.469 442.449 354.277 443.84 357.085 445.965 358.965 448.822 359.918L448.377 361.346C444.753 360.394 441.976 358.344 440.046 355.196 438.116 352.047 437.151 348.234 437.151 343.757 437.151 339.291 438.119 335.478 440.055 332.318 441.991 329.157 444.765 327.101 448.377 326.148Z" fill="#252529" fill-rule="evenodd"/><text fill="#252529" font-family="Cambria Math,Cambria Math_MSFontService,sans-serif" font-weight="400" font-size="38" transform="translate(449.525 355)">𝑅</text><text fill="#252529" font-family="Cambria Math,Cambria Math_MSFontService,sans-serif" font-weight="400" font-size="28" transform="translate(473.045 362)">0</text><text fill="#252529" font-family="Cambria Math,Cambria Math_MSFontService,sans-serif" font-weight="400" font-size="38" transform="translate(490.618 355)">,</text><text fill="#252529" font-family="Cambria Math,Cambria Math_MSFontService,sans-serif" font-weight="400" font-size="38" transform="translate(504.765 355)">𝐶</text><text fill="#252529" font-family="Cambria Math,Cambria Math_MSFontService,sans-serif" font-weight="400" font-size="28" transform="translate(525.212 362)">0</text><text fill="#C81919" font-family="Cambria Math,Cambria Math_MSFontService,sans-serif" font-weight="400" font-size="22" transform="translate(451.648 224)">𝛿</text><text fill="#C81919" font-family="Cambria Math,Cambria Math_MSFontService,sans-serif" font-weight="400" font-size="16" transform="translate(462.335 228)">1</text><text fill="#C81919" font-family="Cambria Math,Cambria Math_MSFontService,sans-serif" font-weight="400" font-size="22" transform="translate(492.962 250)">𝛿</text><text fill="#C81919" font-family="Cambria Math,Cambria Math_MSFontService,sans-serif" font-weight="400" font-size="16" transform="translate(504.156 254)">2</text><text fill="#252529" font-family="Cambria Math,Cambria Math_MSFontService,sans-serif" font-weight="400" font-size="38" transform="translate(273.451 283)">𝑤</text><text fill="#252529" font-family="Cambria Math,Cambria Math_MSFontService,sans-serif" font-weight="400" font-size="28" transform="translate(300.191 290)">Δ</text><text fill="#252529" font-family="Cambria Math,Cambria Math_MSFontService,sans-serif" font-weight="400" font-size="38" transform="translate(641.483 283)">𝑧</text><text fill="#252529" font-family="Cambria Math,Cambria Math_MSFontService,sans-serif" font-weight="400" font-size="28" transform="translate(658.89 290)">Δ</text></g></svg>