<svg width="275" height="172" xmlns="http://www.w3.org/2000/svg" xmlns:xlink="http://www.w3.org/1999/xlink" overflow="hidden"><g transform="translate(-342 -207)"><path d="M524.704 288.5 442.296 288.5C440.2 288.5 438.5 290.2 438.5 292.296L438.5 374.704C438.5 376.801 440.2 378.5 442.296 378.5L524.704 378.5C526.801 378.5 528.5 376.801 528.5 374.704L528.5 292.296C528.5 290.2 526.801 288.5 524.704 288.5" stroke="#252529" stroke-width="1.00955" stroke-linejoin="round" stroke-miterlimit="10" fill="none" fill-rule="evenodd"/><path d="M510.704 209.5 455.296 209.5C453.2 209.5 451.5 211.173 451.5 213.236L451.5 267.764C451.5 269.828 453.2 271.5 455.296 271.5L510.704 271.5C512.801 271.5 514.5 269.828 514.5 267.764L514.5 213.236C514.5 211.173 512.801 209.5 510.704 209.5" stroke="#252529" stroke-width="1.00955" stroke-linejoin="round" stroke-miterlimit="10" fill="#F3F4F5" fill-rule="evenodd"/><path d="M383.838 353.5 428.163 353.5" stroke="#252529" stroke-width="1.00955" stroke-linejoin="round" stroke-miterlimit="10" fill="none" fill-rule="evenodd"/><path d="M436.5 354 424.5 349.5 428.534 354 424.5 358.5 436.5 354" stroke="#252529" stroke-width="1.00955" stroke-linejoin="round" stroke-miterlimit="10" fill="#252529" fill-rule="evenodd"/><path d="M528.838 353.5 573.163 353.5" stroke="#252529" stroke-width="1.00955" stroke-linejoin="round" stroke-miterlimit="10" fill="none" fill-rule="evenodd"/><path d="M581.5 354 569.5 349.5 573.534 354 569.5 358.5 581.5 354" stroke="#252529" stroke-width="1.00955" stroke-linejoin="round" stroke-miterlimit="10" fill="#252529" fill-rule="evenodd"/><path d="M451.174 240.5 403.826 240.5" stroke="#252529" stroke-width="1.00955" stroke-linejoin="round" stroke-miterlimit="10" fill="none" fill-rule="evenodd"/><path d="M403.5 240.828 403.5 314.172" stroke="#252529" stroke-width="1.00955" stroke-linejoin="round" stroke-miterlimit="10" fill="none" fill-rule="evenodd"/><path d="M403.827 314 428.173 314" stroke="#252529" stroke-width="1.00955" stroke-linejoin="round" stroke-miterlimit="10" fill="none" fill-rule="evenodd"/><path d="M436.5 314.002 424.501 309.5 428.534 314.001 424.5 318.5 436.5 314.002" stroke="#252529" stroke-width="1.00955" stroke-linejoin="round" stroke-miterlimit="10" fill="#252529" fill-rule="evenodd"/><path d="M528.841 314 563.159 314" stroke="#252529" stroke-width="1.00955" stroke-linejoin="round" stroke-miterlimit="10" fill="none" fill-rule="evenodd"/><path d="M563 314.172 563 240.828" stroke="#252529" stroke-width="1.00955" stroke-linejoin="round" stroke-miterlimit="10" fill="none" fill-rule="evenodd"/><path d="M563.154 240.5 524.846 240.5" stroke="#252529" stroke-width="1.00955" stroke-linejoin="round" stroke-miterlimit="10" fill="none" fill-rule="evenodd"/><path d="M516.5 240.005 528.5 244.5 524.465 240.002 528.496 235.5 516.5 240.005" stroke="#252529" stroke-width="1.00955" stroke-linejoin="round" stroke-miterlimit="10" fill="#252529" fill-rule="evenodd"/><text fill="#252529" font-family="Cambria Math,Cambria Math_MSFontService,sans-serif" font-weight="400" font-size="32" transform="translate(449.775 346)">ODE</text><text fill="#C81919" font-family="Cambria Math,Cambria Math_MSFontService,sans-serif" font-weight="400" font-size="32" transform="translate(470.186 252)">Δ</text><text fill="#252529" font-family="Cambria Math,Cambria Math_MSFontService,sans-serif" font-weight="400" font-size="32" transform="translate(344.55 357)">𝑤</text><text fill="#252529" font-family="Cambria Math,Cambria Math_MSFontService,sans-serif" font-weight="400" font-size="23" transform="translate(365.883 364)">𝑝</text><text fill="#252529" font-family="Cambria Math,Cambria Math_MSFontService,sans-serif" font-weight="400" font-size="32" transform="translate(579.12 357)">𝑧</text><text fill="#252529" font-family="Cambria Math,Cambria Math_MSFontService,sans-serif" font-weight="400" font-size="23" transform="translate(593.52 364)">𝑝</text><text fill="#252529" font-family="Cambria Math,Cambria Math_MSFontService,sans-serif" font-weight="400" font-size="32" transform="translate(353.364 284)">𝑤</text><text fill="#252529" font-family="Cambria Math,Cambria Math_MSFontService,sans-serif" font-weight="400" font-size="23" transform="translate(375.651 290)">Δ</text><text fill="#252529" font-family="Cambria Math,Cambria Math_MSFontService,sans-serif" font-weight="400" font-size="32" transform="translate(565.16 284)">𝑧</text><text fill="#252529" font-family="Cambria Math,Cambria Math_MSFontService,sans-serif" font-weight="400" font-size="23" transform="translate(579.56 290)">Δ</text></g></svg>