<svg width="227" height="153" xmlns="http://www.w3.org/2000/svg" xmlns:xlink="http://www.w3.org/1999/xlink" overflow="hidden"><g transform="translate(-366 -217)"><path d="M522.695 286.5 447.305 286.5C445.204 286.5 443.5 288.183 443.5 290.259L443.5 364.741C443.5 366.817 445.204 368.5 447.305 368.5L522.695 368.5C524.796 368.5 526.5 366.817 526.5 364.741L526.5 290.259C526.5 288.183 524.796 286.5 522.695 286.5" stroke="#252529" stroke-width="1.00955" stroke-linejoin="round" stroke-miterlimit="10" fill="none" fill-rule="evenodd"/><path d="M505.756 218.5 464.244 218.5C462.176 218.5 460.5 220.21 460.5 222.32L460.5 264.68C460.5 266.79 462.176 268.5 464.244 268.5L505.756 268.5C507.824 268.5 509.5 266.79 509.5 264.68L509.5 222.32C509.5 220.21 507.824 218.5 505.756 218.5" stroke="#252529" stroke-width="1.00955" stroke-linejoin="round" stroke-miterlimit="10" fill="#F3F4F5" fill-rule="evenodd"/><path d="M459.166 243.5 417.834 243.5" stroke="#252529" stroke-width="1.00955" stroke-linejoin="round" stroke-miterlimit="10" fill="none" fill-rule="evenodd"/><path d="M418 243.819 418 309.181" stroke="#252529" stroke-width="1.00955" stroke-linejoin="round" stroke-miterlimit="10" fill="none" fill-rule="evenodd"/><path d="M417.85 309.5 433.15 309.5" stroke="#252529" stroke-width="1.00955" stroke-linejoin="round" stroke-miterlimit="10" fill="none" fill-rule="evenodd"/><path d="M441.5 309.501 429.501 304.5 433.534 309.5 429.5 314.5 441.5 309.501" stroke="#252529" stroke-width="1.00955" stroke-linejoin="round" stroke-miterlimit="10" fill="#252529" fill-rule="evenodd"/><path d="M526.811 309.5 551.189 309.5" stroke="#252529" stroke-width="1.00955" stroke-linejoin="round" stroke-miterlimit="10" fill="none" fill-rule="evenodd"/><path d="M551.5 309.181 551.5 243.819" stroke="#252529" stroke-width="1.00955" stroke-linejoin="round" stroke-miterlimit="10" fill="none" fill-rule="evenodd"/><path d="M551.179 243.5 519.821 243.5" stroke="#252529" stroke-width="1.00955" stroke-linejoin="round" stroke-miterlimit="10" fill="none" fill-rule="evenodd"/><path d="M511.5 243.004 523.5 247.5 519.466 243.001 523.497 238.5 511.5 243.004" stroke="#252529" stroke-width="1.00955" stroke-linejoin="round" stroke-miterlimit="10" fill="#252529" fill-rule="evenodd"/><text fill="#252529" font-family="Cambria Math,Cambria Math_MSFontService,sans-serif" font-weight="400" font-size="29" transform="translate(469.266 339)">𝐻</text><text fill="#C81919" font-family="Cambria Math,Cambria Math_MSFontService,sans-serif" font-weight="400" font-size="29" transform="translate(472.783 254)">Δ</text><text fill="#252529" font-family="Cambria Math,Cambria Math_MSFontService,sans-serif" font-weight="400" font-size="29" transform="translate(371.959 283)">𝑤</text><text fill="#252529" font-family="Cambria Math,Cambria Math_MSFontService,sans-serif" font-weight="400" font-size="21" transform="translate(392.499 289)">Δ</text><text fill="#252529" font-family="Cambria Math,Cambria Math_MSFontService,sans-serif" font-weight="400" font-size="29" transform="translate(553.557 283)">𝑧</text><text fill="#252529" font-family="Cambria Math,Cambria Math_MSFontService,sans-serif" font-weight="400" font-size="21" transform="translate(566.851 289)">Δ</text></g></svg>