<svg width="254" height="153" xmlns="http://www.w3.org/2000/svg" xmlns:xlink="http://www.w3.org/1999/xlink" overflow="hidden"><g transform="translate(-353 -217)"><path d="M520.695 286.5 445.305 286.5C443.204 286.5 441.5 288.183 441.5 290.259L441.5 364.741C441.5 366.817 443.204 368.5 445.305 368.5L520.695 368.5C522.796 368.5 524.5 366.817 524.5 364.741L524.5 290.259C524.5 288.183 522.796 286.5 520.695 286.5" stroke="#252529" stroke-width="1.00955" stroke-linejoin="round" stroke-miterlimit="10" fill="none" fill-rule="evenodd"/><path d="M503.756 218.5 462.244 218.5C460.176 218.5 458.5 220.21 458.5 222.32L458.5 264.68C458.5 266.79 460.176 268.5 462.244 268.5L503.756 268.5C505.824 268.5 507.5 266.79 507.5 264.68L507.5 222.32C507.5 220.21 505.824 218.5 503.756 218.5" stroke="#252529" stroke-width="1.00955" stroke-linejoin="round" stroke-miterlimit="10" fill="#F3F4F5" fill-rule="evenodd"/><path d="M391.816 346 431.184 346" stroke="#252529" stroke-width="1.00955" stroke-linejoin="round" stroke-miterlimit="10" fill="none" fill-rule="evenodd"/><path d="M439.5 346 427.5 341.5 431.534 346 427.5 350.5 439.5 346" stroke="#252529" stroke-width="1.00955" stroke-linejoin="round" stroke-miterlimit="10" fill="#252529" fill-rule="evenodd"/><path d="M524.848 346 565.152 346" stroke="#252529" stroke-width="1.00955" stroke-linejoin="round" stroke-miterlimit="10" fill="none" fill-rule="evenodd"/><path d="M573.5 346 561.5 341.5 565.534 346 561.5 350.5 573.5 346" stroke="#252529" stroke-width="1.00955" stroke-linejoin="round" stroke-miterlimit="10" fill="#252529" fill-rule="evenodd"/><path d="M458.166 243.5 416.834 243.5" stroke="#252529" stroke-width="1.00955" stroke-linejoin="round" stroke-miterlimit="10" fill="none" fill-rule="evenodd"/><path d="M416.5 243.819 416.5 309.181" stroke="#252529" stroke-width="1.00955" stroke-linejoin="round" stroke-miterlimit="10" fill="none" fill-rule="evenodd"/><path d="M416.775 309.5 431.225 309.5" stroke="#252529" stroke-width="1.00955" stroke-linejoin="round" stroke-miterlimit="10" fill="none" fill-rule="evenodd"/><path d="M439.5 309.501 427.501 304.5 431.534 309.5 427.5 314.5 439.5 309.501" stroke="#252529" stroke-width="1.00955" stroke-linejoin="round" stroke-miterlimit="10" fill="#252529" fill-rule="evenodd"/><path d="M524.86 309.5 550.14 309.5" stroke="#252529" stroke-width="1.00955" stroke-linejoin="round" stroke-miterlimit="10" fill="none" fill-rule="evenodd"/><path d="M550 309.181 550 243.819" stroke="#252529" stroke-width="1.00955" stroke-linejoin="round" stroke-miterlimit="10" fill="none" fill-rule="evenodd"/><path d="M550.14 243.5 517.86 243.5" stroke="#252529" stroke-width="1.00955" stroke-linejoin="round" stroke-miterlimit="10" fill="none" fill-rule="evenodd"/><path d="M509.5 243.004 521.5 247.5 517.466 243.001 521.497 238.5 509.5 243.004" stroke="#252529" stroke-width="1.00955" stroke-linejoin="round" stroke-miterlimit="10" fill="#252529" fill-rule="evenodd"/><text fill="#252529" font-family="Cambria Math,Cambria Math_MSFontService,sans-serif" font-weight="400" font-size="29" transform="translate(467.451 339)">𝐻</text><text fill="#C81919" font-family="Cambria Math,Cambria Math_MSFontService,sans-serif" font-weight="400" font-size="29" transform="translate(470.968 254)">Δ</text><text fill="#252529" font-family="Cambria Math,Cambria Math_MSFontService,sans-serif" font-weight="400" font-size="29" transform="translate(355.375 350)">𝑤</text><text fill="#252529" font-family="Cambria Math,Cambria Math_MSFontService,sans-serif" font-weight="400" font-size="21" transform="translate(375.035 356)">𝑝</text><text fill="#252529" font-family="Cambria Math,Cambria Math_MSFontService,sans-serif" font-weight="400" font-size="29" transform="translate(571.157 350)">𝑧</text><text fill="#252529" font-family="Cambria Math,Cambria Math_MSFontService,sans-serif" font-weight="400" font-size="21" transform="translate(584.45 356)">𝑝</text><text fill="#252529" font-family="Cambria Math,Cambria Math_MSFontService,sans-serif" font-weight="400" font-size="29" transform="translate(370.146 283)">𝑤</text><text fill="#252529" font-family="Cambria Math,Cambria Math_MSFontService,sans-serif" font-weight="400" font-size="21" transform="translate(390.686 289)">Δ</text><text fill="#252529" font-family="Cambria Math,Cambria Math_MSFontService,sans-serif" font-weight="400" font-size="29" transform="translate(551.742 283)">𝑧</text><text fill="#252529" font-family="Cambria Math,Cambria Math_MSFontService,sans-serif" font-weight="400" font-size="21" transform="translate(565.035 289)">Δ</text></g></svg>