<svg width="347" height="206" xmlns="http://www.w3.org/2000/svg" xmlns:xlink="http://www.w3.org/1999/xlink" overflow="hidden"><g transform="translate(-301 -190)"><path d="M536.704 287.5 436.296 287.5C434.2 287.5 432.5 289.2 432.5 291.296L432.5 391.704C432.5 393.801 434.2 395.5 436.296 395.5L536.704 395.5C538.801 395.5 540.5 393.801 540.5 391.704L540.5 291.296C540.5 289.2 538.801 287.5 536.704 287.5" stroke="#252529" stroke-width="1.00955" stroke-linejoin="round" stroke-miterlimit="10" fill="none" fill-rule="evenodd"/><path d="M519.734 192.5 452.266 192.5C450.186 192.5 448.5 194.186 448.5 196.266L448.5 263.734C448.5 265.814 450.186 267.5 452.266 267.5L519.734 267.5C521.814 267.5 523.5 265.814 523.5 263.734L523.5 196.266C523.5 194.186 521.814 192.5 519.734 192.5" stroke="#252529" stroke-width="1.00955" stroke-linejoin="round" stroke-miterlimit="10" fill="#F3F4F5" fill-rule="evenodd"/><path d="M447.5 230.5 377.5 229.5" stroke="#252529" stroke-width="1.00955" stroke-linejoin="round" stroke-miterlimit="10" fill="none" fill-rule="evenodd"/><path d="M377.5 229.5 378.492 318.5" stroke="#252529" stroke-width="1.00955" stroke-linejoin="round" stroke-miterlimit="10" fill="none" fill-rule="evenodd"/><path d="M377.5 318.5 421.5 318.689" stroke="#252529" stroke-width="1.00955" stroke-linejoin="round" stroke-miterlimit="10" fill="none" fill-rule="evenodd"/><path d="M430.5 318.001 418.5 313.5 422.534 318 418.5 322.5 430.5 318.001" stroke="#252529" stroke-width="1.00955" stroke-linejoin="round" stroke-miterlimit="10" fill="#252529" fill-rule="evenodd"/><path d="M540.5 318.721 594.5 318.5" stroke="#252529" stroke-width="1.00955" stroke-linejoin="round" stroke-miterlimit="10" fill="none" fill-rule="evenodd"/><path d="M594.5 318.5 595.492 229.5" stroke="#252529" stroke-width="1.00955" stroke-linejoin="round" stroke-miterlimit="10" fill="none" fill-rule="evenodd"/><path d="M594.5 229.5 534.5 230.382" stroke="#252529" stroke-width="1.00955" stroke-linejoin="round" stroke-miterlimit="10" fill="none" fill-rule="evenodd"/><path d="M526.5 230.003 538.5 234.5 534.466 230.001 538.498 225.5 526.5 230.003" stroke="#252529" stroke-width="1.00955" stroke-linejoin="round" stroke-miterlimit="10" fill="#252529" fill-rule="evenodd"/><text fill="#252529" font-family="Cambria Math,Cambria Math_MSFontService,sans-serif" font-style="oblique" font-weight="400" font-size="38" transform="translate(471.161 356)">H</text><text fill="#C81919" font-family="Cambria Math,Cambria Math_MSFontService,sans-serif" font-weight="400" font-size="38" transform="translate(474.446 244)">Δ</text><text fill="#252529" font-family="Cambria Math,Cambria Math_MSFontService,sans-serif" font-style="oblique" font-weight="400" font-size="38" transform="translate(324.847 284)">w</text><text fill="#252529" font-family="Cambria Math,Cambria Math_MSFontService,sans-serif" font-weight="400" font-size="18" transform="translate(354.18 287)">Δ</text><text fill="#252529" font-family="Cambria Math,Cambria Math_MSFontService,sans-serif" font-style="oblique" font-weight="400" font-size="38" transform="translate(606.151 284)">z</text><text fill="#252529" font-family="Cambria Math,Cambria Math_MSFontService,sans-serif" font-weight="400" font-size="18" transform="translate(623.318 287)">Δ</text></g></svg>