<svg width="347" height="215" xmlns="http://www.w3.org/2000/svg" xmlns:xlink="http://www.w3.org/1999/xlink" overflow="hidden"><g transform="translate(-301 -190)"><path d="M533.704 287.5 433.296 287.5C431.2 287.5 429.5 289.2 429.5 291.296L429.5 391.704C429.5 393.801 431.2 395.5 433.296 395.5L533.704 395.5C535.801 395.5 537.5 393.801 537.5 391.704L537.5 291.296C537.5 289.2 535.801 287.5 533.704 287.5" stroke="#252529" stroke-width="1.00955" stroke-linejoin="round" stroke-miterlimit="10" fill="none" fill-rule="evenodd"/><path d="M517.734 192.5 450.266 192.5C448.186 192.5 446.5 194.186 446.5 196.266L446.5 263.734C446.5 265.814 448.186 267.5 450.266 267.5L517.734 267.5C519.814 267.5 521.5 265.814 521.5 263.734L521.5 196.266C521.5 194.186 519.814 192.5 517.734 192.5" stroke="#252529" stroke-width="1.00955" stroke-linejoin="round" stroke-miterlimit="10" fill="#F3F4F5" fill-rule="evenodd"/><path d="M364.5 365.5 419.5 365.5" stroke="#252529" stroke-width="1.00955" stroke-linejoin="round" stroke-miterlimit="10" fill="none" fill-rule="evenodd"/><path d="M427.5 365 415.5 360.5 419.534 365 415.5 369.5 427.5 365" stroke="#252529" stroke-width="1.00955" stroke-linejoin="round" stroke-miterlimit="10" fill="#252529" fill-rule="evenodd"/><path d="M538.5 365.5 593.5 365.5" stroke="#252529" stroke-width="1.00955" stroke-linejoin="round" stroke-miterlimit="10" fill="none" fill-rule="evenodd"/><path d="M601.5 365 589.5 360.5 593.534 365 589.5 369.5 601.5 365" stroke="#252529" stroke-width="1.00955" stroke-linejoin="round" stroke-miterlimit="10" fill="#252529" fill-rule="evenodd"/><path d="M445.5 230.5 392.5 229.5" stroke="#252529" stroke-width="1.00955" stroke-linejoin="round" stroke-miterlimit="10" fill="none" fill-rule="evenodd"/><path d="M392.5 229.5 393.335 318.5" stroke="#252529" stroke-width="1.00955" stroke-linejoin="round" stroke-miterlimit="10" fill="none" fill-rule="evenodd"/><path d="M392.5 318.5 419.5 318.665" stroke="#252529" stroke-width="1.00955" stroke-linejoin="round" stroke-miterlimit="10" fill="none" fill-rule="evenodd"/><path d="M427.5 318.001 415.501 313.5 419.534 318 415.5 322.5 427.5 318.001" stroke="#252529" stroke-width="1.00955" stroke-linejoin="round" stroke-miterlimit="10" fill="#252529" fill-rule="evenodd"/><path d="M538.5 318.721 575.5 318.5" stroke="#252529" stroke-width="1.00955" stroke-linejoin="round" stroke-miterlimit="10" fill="none" fill-rule="evenodd"/><path d="M575.5 318.5 576.335 229.5" stroke="#252529" stroke-width="1.00955" stroke-linejoin="round" stroke-miterlimit="10" fill="none" fill-rule="evenodd"/><path d="M575.5 229.5 531.5 230.358" stroke="#252529" stroke-width="1.00955" stroke-linejoin="round" stroke-miterlimit="10" fill="none" fill-rule="evenodd"/><path d="M523.5 230.003 535.5 234.5 531.466 230.001 535.498 225.5 523.5 230.003" stroke="#252529" stroke-width="1.00955" stroke-linejoin="round" stroke-miterlimit="10" fill="#252529" fill-rule="evenodd"/><text fill="#252529" font-family="Cambria Math,Cambria Math_MSFontService,sans-serif" font-style="oblique" font-weight="400" font-size="38" transform="translate(465.053 357)">H</text><text fill="#252529" font-family="Cambria Math,Cambria Math_MSFontService,sans-serif" font-style="oblique" font-weight="400" font-size="18" transform="translate(491.053 360)">e</text><text fill="#C81919" font-family="Cambria Math,Cambria Math_MSFontService,sans-serif" font-weight="400" font-size="38" transform="translate(472.076 244)">Δ</text><text fill="#252529" font-family="Cambria Math,Cambria Math_MSFontService,sans-serif" font-style="oblique" font-weight="400" font-size="38" transform="translate(324.144 373)">w</text><text fill="#252529" font-family="Cambria Math,Cambria Math_MSFontService,sans-serif" font-style="oblique" font-weight="400" font-size="18" transform="translate(353.477 376)">p</text><text fill="#252529" font-family="Cambria Math,Cambria Math_MSFontService,sans-serif" font-style="oblique" font-weight="400" font-size="38" transform="translate(607.523 373)">z</text><text fill="#252529" font-family="Cambria Math,Cambria Math_MSFontService,sans-serif" font-style="oblique" font-weight="400" font-size="18" transform="translate(624.69 376)">p</text><text fill="#252529" font-family="Cambria Math,Cambria Math_MSFontService,sans-serif" font-style="oblique" font-weight="400" font-size="38" transform="translate(339.719 284)">w</text><text fill="#252529" font-family="Cambria Math,Cambria Math_MSFontService,sans-serif" font-weight="400" font-size="18" transform="translate(369.052 287)">Δ</text><text fill="#252529" font-family="Cambria Math,Cambria Math_MSFontService,sans-serif" font-style="oblique" font-weight="400" font-size="38" transform="translate(586.545 284)">z</text><text fill="#252529" font-family="Cambria Math,Cambria Math_MSFontService,sans-serif" font-weight="400" font-size="18" transform="translate(603.711 287)">Δ</text></g></svg>