<svg width="327" height="179" xmlns="http://www.w3.org/2000/svg" xmlns:xlink="http://www.w3.org/1999/xlink" overflow="hidden"><g transform="translate(-312 -207)"><path d="M542.708 288.5 423.293 288.5C421.198 288.5 419.5 290.2 419.5 292.296L419.5 374.704C419.5 376.801 421.198 378.5 423.293 378.5L542.708 378.5C544.802 378.5 546.5 376.801 546.5 374.704L546.5 292.296C546.5 290.2 544.802 288.5 542.708 288.5" stroke="#252529" stroke-width="1.00955" stroke-linejoin="round" stroke-miterlimit="10" fill="none" fill-rule="evenodd"/><path d="M510.704 209.5 455.296 209.5C453.2 209.5 451.5 211.173 451.5 213.236L451.5 267.764C451.5 269.828 453.2 271.5 455.296 271.5L510.704 271.5C512.801 271.5 514.5 269.828 514.5 267.764L514.5 213.236C514.5 211.173 512.801 209.5 510.704 209.5" stroke="#252529" stroke-width="1.00955" stroke-linejoin="round" stroke-miterlimit="10" fill="#F3F4F5" fill-rule="evenodd"/><path d="M365.5 353.5 409.5 353.5" stroke="#252529" stroke-width="1.00955" stroke-linejoin="round" stroke-miterlimit="10" fill="none" fill-rule="evenodd"/><path d="M417.5 354 405.5 349.5 409.534 354 405.5 358.5 417.5 354" stroke="#252529" stroke-width="1.00955" stroke-linejoin="round" stroke-miterlimit="10" fill="#252529" fill-rule="evenodd"/><path d="M547.5 353.5 591.5 353.5" stroke="#252529" stroke-width="1.00955" stroke-linejoin="round" stroke-miterlimit="10" fill="none" fill-rule="evenodd"/><path d="M599.5 354 587.5 349.5 591.534 354 587.5 358.5 599.5 354" stroke="#252529" stroke-width="1.00955" stroke-linejoin="round" stroke-miterlimit="10" fill="#252529" fill-rule="evenodd"/><path d="M451.5 241.5 385.5 240.5" stroke="#252529" stroke-width="1.00955" stroke-linejoin="round" stroke-miterlimit="10" fill="none" fill-rule="evenodd"/><path d="M385.5 240.5 386.5 314.5" stroke="#252529" stroke-width="1.00955" stroke-linejoin="round" stroke-miterlimit="10" fill="none" fill-rule="evenodd"/><path d="M385.5 314.5 409.5 314.744" stroke="#252529" stroke-width="1.00955" stroke-linejoin="round" stroke-miterlimit="10" fill="none" fill-rule="evenodd"/><path d="M417.5 314.002 405.501 309.5 409.534 314.001 405.5 318.5 417.5 314.002" stroke="#252529" stroke-width="1.00955" stroke-linejoin="round" stroke-miterlimit="10" fill="#252529" fill-rule="evenodd"/><path d="M547.5 314.839 581.5 314.5" stroke="#252529" stroke-width="1.00955" stroke-linejoin="round" stroke-miterlimit="10" fill="none" fill-rule="evenodd"/><path d="M581.5 314.5 582.5 240.5" stroke="#252529" stroke-width="1.00955" stroke-linejoin="round" stroke-miterlimit="10" fill="none" fill-rule="evenodd"/><path d="M581.5 240.5 525.5 241.5" stroke="#252529" stroke-width="1.00955" stroke-linejoin="round" stroke-miterlimit="10" fill="none" fill-rule="evenodd"/><path d="M516.5 240.004 528.5 244.5 524.466 240.001 528.497 235.5 516.5 240.004" stroke="#252529" stroke-width="1.00955" stroke-linejoin="round" stroke-miterlimit="10" fill="#252529" fill-rule="evenodd"/><text fill="#252529" font-family="Cambria Math,Cambria Math_MSFontService,sans-serif" font-style="oblique" font-weight="400" font-size="32" transform="translate(454.65 343)">H</text><text fill="#252529" font-family="Cambria Math,Cambria Math_MSFontService,sans-serif" font-weight="400" font-size="15" transform="translate(476.317 346)">{</text><text fill="#252529" font-family="Cambria Math,Cambria Math_MSFontService,sans-serif" font-style="oblique" font-weight="400" font-size="15" transform="translate(481.983 346)">PIE</text><text fill="#252529" font-family="Cambria Math,Cambria Math_MSFontService,sans-serif" font-weight="400" font-size="15" transform="translate(503.65 346)">}</text><text fill="#C81919" font-family="Cambria Math,Cambria Math_MSFontService,sans-serif" font-weight="400" font-size="32" transform="translate(473.354 252)">Δ</text><text fill="#252529" font-family="Cambria Math,Cambria Math_MSFontService,sans-serif" font-style="oblique" font-weight="400" font-size="32" transform="translate(331.58 360)">w</text><text fill="#252529" font-family="Cambria Math,Cambria Math_MSFontService,sans-serif" font-style="oblique" font-weight="400" font-size="15" transform="translate(356.08 362)">p</text><text fill="#252529" font-family="Cambria Math,Cambria Math_MSFontService,sans-serif" font-style="oblique" font-weight="400" font-size="32" transform="translate(604.794 360)">z</text><text fill="#252529" font-family="Cambria Math,Cambria Math_MSFontService,sans-serif" font-style="oblique" font-weight="400" font-size="15" transform="translate(619.127 362)">p</text><text fill="#252529" font-family="Cambria Math,Cambria Math_MSFontService,sans-serif" font-style="oblique" font-weight="400" font-size="32" transform="translate(340.889 286)">w</text><text fill="#252529" font-family="Cambria Math,Cambria Math_MSFontService,sans-serif" font-weight="400" font-size="15" transform="translate(365.389 288)">Δ</text><text fill="#252529" font-family="Cambria Math,Cambria Math_MSFontService,sans-serif" font-style="oblique" font-weight="400" font-size="32" transform="translate(590.868 286)">z</text><text fill="#252529" font-family="Cambria Math,Cambria Math_MSFontService,sans-serif" font-weight="400" font-size="15" transform="translate(605.201 288)">Δ</text></g></svg>